<?xml version="1.0" encoding="iso-8859-1"?>
<!-- Generator: Adobe Illustrator 21.0.0, SVG Export Plug-In . SVG Version: 6.00 Build 0)  -->
<svg version="1.1" id="Capa_1" xmlns="http://www.w3.org/2000/svg" xmlns:xlink="http://www.w3.org/1999/xlink" x="0px" y="0px"
	 viewBox="0 0 512 512" style="enable-background:new 0 0 512 512;" xml:space="preserve">
<g>
	<path style="fill:#46B29D;" d="M26.034,52.068h416.542c9.585,0,17.356,7.771,17.356,17.356v416.542
		c0,9.585-7.771,17.356-17.356,17.356H26.034c-9.585,0-17.356-7.771-17.356-17.356V69.424C8.678,59.838,16.448,52.068,26.034,52.068
		z"/>
	<path style="fill:#DF4D60;" d="M485.966,95.458c-4.793,0-8.678,3.885-8.678,8.678v34.712H277.695c-4.793,0-8.678,3.885-8.678,8.678
		v225.627H104.136v-95.458c0-4.793-3.885-8.678-8.678-8.678H8.678c-4.793,0-8.678,3.885-8.678,8.678s3.885,8.678,8.678,8.678H86.78
		v95.458c0,4.793,3.885,8.678,8.678,8.678h182.237c4.793,0,8.678-3.885,8.678-8.678V156.203h199.593
		c4.793,0,8.678-3.885,8.678-8.678v-43.39C494.644,99.343,490.759,95.458,485.966,95.458z"/>
	<g>
		<path style="fill:#14A085;" d="M8.678,251.661h69.424c4.793,0,8.678-3.885,8.678-8.678v-69.424h138.847v34.712h-95.458
			c-4.793,0-8.678,3.885-8.678,8.678v112.814c0,4.793,3.885,8.678,8.678,8.678h104.136c4.793,0,8.678-3.885,8.678-8.678
			c0-4.793-3.885-8.678-8.678-8.678h-95.458v-95.458h26.034v52.068c0,4.793,3.885,8.678,8.678,8.678h60.746
			c4.793,0,8.678-3.885,8.678-8.678s-3.885-8.678-8.678-8.678h-52.068v-43.39h52.068c4.793,0,8.678-3.885,8.678-8.678v-52.068
			c0-4.793-3.885-8.678-8.678-8.678h-95.458v-52.068c0-4.793-3.885-8.678-8.678-8.678c-4.793,0-8.678,3.885-8.678,8.678v52.068
			h-43.39c-4.793,0-8.678,3.885-8.678,8.678v69.424H17.356V69.424c0-4.793,3.885-8.678,8.678-8.678h277.695V86.78H182.237
			c-4.793,0-8.678,3.885-8.678,8.678s3.885,8.678,8.678,8.678h130.169c4.793,0,8.678-3.885,8.678-8.678V60.746h34.712
			c4.793,0,8.678-3.885,8.678-8.678s-3.885-8.678-8.678-8.678H26.034C11.656,43.39,0,55.046,0,69.424v173.559
			C0,247.776,3.885,251.661,8.678,251.661z"/>
		<path style="fill:#14A085;" d="M459.932,173.559c-4.793,0-8.678,3.885-8.678,8.678v60.746h-78.102v-60.746
			c0-4.793-3.885-8.678-8.678-8.678s-8.678,3.885-8.678,8.678v60.746h-43.39c-4.793,0-8.678,3.885-8.678,8.678
			c0,4.793,3.885,8.678,8.678,8.678h138.847v138.847h-78.102c-4.793,0-8.678,3.885-8.678,8.678v86.78H199.593v-60.746h112.814
			c4.793,0,8.678-3.885,8.678-8.678v-69.424h95.458c4.793,0,8.678-3.885,8.678-8.678c0-4.793-3.885-8.678-8.678-8.678H312.407
			c-4.793,0-8.678,3.885-8.678,8.678v69.424H69.424V312.407c0-4.793-3.885-8.678-8.678-8.678H8.678
			c-4.793,0-8.678,3.885-8.678,8.678v173.559C0,500.344,11.656,512,26.034,512h416.542c14.378,0,26.034-11.656,26.034-26.034
			V182.237C468.61,177.445,464.725,173.559,459.932,173.559z M17.356,485.966V321.085h34.712V425.22
			c0,4.793,3.885,8.678,8.678,8.678h121.492v60.746H26.034C21.241,494.644,17.356,490.759,17.356,485.966z M442.576,494.644h-60.746
			v-78.102h69.424v69.424C451.254,490.759,447.369,494.644,442.576,494.644z"/>
	</g>
	<path style="fill:#F0C419;" d="M512,8.678v86.78c0,4.793-3.885,8.678-8.678,8.678H373.153V0h130.169C508.115,0,512,3.885,512,8.678
		z"/>
	<g>
		<path style="fill:#E57E25;" d="M477.288,26.034H425.22c-4.793,0-8.678,3.885-8.678,8.678s3.885,8.678,8.678,8.678h52.068
			c4.793,0,8.678-3.885,8.678-8.678S482.081,26.034,477.288,26.034z"/>
		<path style="fill:#E57E25;" d="M442.576,60.746H425.22c-4.793,0-8.678,3.885-8.678,8.678s3.885,8.678,8.678,8.678h17.356
			c4.793,0,8.678-3.885,8.678-8.678S447.369,60.746,442.576,60.746z"/>
		<path style="fill:#E57E25;" d="M390.508,0v104.136h-26.034c-4.793,0-8.678-3.885-8.678-8.678V8.678
			c0-4.793,3.885-8.678,8.678-8.678H390.508z"/>
	</g>
</g>
<g>
</g>
<g>
</g>
<g>
</g>
<g>
</g>
<g>
</g>
<g>
</g>
<g>
</g>
<g>
</g>
<g>
</g>
<g>
</g>
<g>
</g>
<g>
</g>
<g>
</g>
<g>
</g>
<g>
</g>
</svg>
