<svg height="512" viewBox="0 0 60 46" width="512" xmlns="http://www.w3.org/2000/svg"><g id="Page-1" fill="none" fill-rule="evenodd"><g id="038---wasd-Keyboard" fill-rule="nonzero"><rect id="Rectangle-path" fill="#e8edfc" height="22" rx="5" width="19" x="1" y="23"/><path id="Shape" d="m15 23h-3c2.7614237 0 5 2.2385763 5 5v12c0 2.7614237-2.2385763 5-5 5h3c2.7614237 0 5-2.2385763 5-5v-12c0-2.7614237-2.2385763-5-5-5z" fill="#cad9fc"/><rect id="Rectangle-path" fill="#cad9fc" height="22" rx="5" width="20" x="20" y="23"/><path id="Shape" d="m35 23h-3c2.7614237 0 5 2.2385763 5 5v12c0 2.7614237-2.2385763 5-5 5h3c2.7614237 0 5-2.2385763 5-5v-12c0-2.7614237-2.2385763-5-5-5z" fill="#a4c2f7"/><rect id="Rectangle-path" fill="#e8edfc" height="22" rx="5" width="20" x="20" y="1"/><path id="Shape" d="m35 1h-3c2.7614237 0 5 2.23857625 5 5v12c0 2.7614237-2.2385763 5-5 5h3c2.7614237 0 5-2.2385763 5-5v-12c0-2.76142375-2.2385763-5-5-5z" fill="#cad9fc"/><rect id="Rectangle-path" fill="#e8edfc" height="22" rx="5" width="19" x="40" y="23"/><path id="Shape" d="m54 23h-3c2.7614237 0 5 2.2385763 5 5v12c0 2.7614237-2.2385763 5-5 5h3c2.7614237 0 5-2.2385763 5-5v-12c0-1.3260824-.5267842-2.597852-1.4644661-3.5355339s-2.2094515-1.4644661-3.5355339-1.4644661z" fill="#cad9fc"/><path id="Shape" d="m6 45h3c-2.76142375 0-5-2.2385763-5-5v-12c0-2.7614237 2.23857625-5 5-5h-3c-2.76142375 0-5 2.2385763-5 5v12c0 1.3260824.5267842 2.597852 1.46446609 3.5355339.9376819.9376819 2.20945146 1.4644661 3.53553391 1.4644661z" fill="#fff"/><path id="Shape" d="m28 23c-2.7614237 0-5-2.2385763-5-5v-12c0-2.76142375 2.2385763-5 5-5h-3c-2.7614237 0-5 2.23857625-5 5v12c0 2.7614237 2.2385763 5 5 5" fill="#fff"/><path id="Rectangle-path" d="m0 28h2v8h-2z" fill="#fff"/><g fill="#428dff"><path id="Shape" d="m1.02 33c.55228475 0 1-.4477153 1-1s-.44771525-1-1-1h-.01c-.55228475.0027614-.99776142.4527153-.995 1.005s.45271525.9977614 1.005.995z"/><path id="Shape" d="m24 8c.5522847 0 1-.44771525 1-1s.4477153-1 1-1h1c.5522847 0 1-.44771525 1-1s-.4477153-1-1-1h-1c-1.6568542 0-3 1.34314575-3 3 0 .26521649.1053568.5195704.2928932.70710678s.4418903.29289322.7071068.29289322z"/><path id="Shape" d="m54 22h-9c-2.0123062.001472-3.889878 1.0116057-5 2.69-.4452257-.6702092-1.0197908-1.2447743-1.69-1.69 1.6783943-1.110122 2.688528-2.9876938 2.69-5v-12c-.0033074-3.31233757-2.6876624-5.99669262-6-6h-10c-3.3123376.00330738-5.9966926 2.68766243-6 6v12c.001472 2.0123062 1.0116057 3.889878 2.69 5-.6702092.4452257-1.2447743 1.0197908-1.69 1.69-1.110122-1.6783943-2.9876938-2.688528-5-2.69h-9c-3.31233757.0033074-5.99669262 2.6876624-6 6 0 .5522847.44771525 1 1 1s1-.4477153 1-1c0-2.209139 1.790861-4 4-4h9c2.209139 0 4 1.790861 4 4v12c0 2.209139-1.790861 4-4 4h-9c-2.209139 0-4-1.790861-4-4v-4c0-.5522847-.44771525-1-1-1s-1 .4477153-1 1v4c.00330738 3.3123376 2.68766243 5.9966926 6 6h9c2.0123062-.001472 3.889878-1.0116057 5-2.69 1.110122 1.6783943 2.9876938 2.688528 5 2.69h10c2.0123062-.001472 3.889878-1.0116057 5-2.69 1.110122 1.6783943 2.9876938 2.688528 5 2.69h9c3.3123376-.0033074 5.9966926-2.6876624 6-6v-12c-.0033074-3.3123376-2.6876624-5.9966926-6-6zm-33-4v-12c0-2.209139 1.790861-4 4-4h10c2.209139 0 4 1.790861 4 4v12c0 2.209139-1.790861 4-4 4h-10c-2.209139 0-4-1.790861-4-4zm18 22c0 2.209139-1.790861 4-4 4h-10c-2.209139 0-4-1.790861-4-4v-12c0-2.209139 1.790861-4 4-4h10c2.209139 0 4 1.790861 4 4zm19 0c0 2.209139-1.790861 4-4 4h-9c-2.209139 0-4-1.790861-4-4v-12c0-2.209139 1.790861-4 4-4h9c2.209139 0 4 1.790861 4 4z"/><path id="Shape" d="m31 6h2c.5522847 0 1-.44771525 1-1s-.4477153-1-1-1h-2c-.5522847 0-1 .44771525-1 1s.4477153 1 1 1z"/><path id="Shape" d="m27 28c.5522847 0 1-.4477153 1-1s-.4477153-1-1-1h-1c-1.6568542 0-3 1.3431458-3 3 0 .5522847.4477153 1 1 1s1-.4477153 1-1 .4477153-1 1-1z"/><path id="Shape" d="m33 26h-2c-.5522847 0-1 .4477153-1 1s.4477153 1 1 1h2c.5522847 0 1-.4477153 1-1s-.4477153-1-1-1z"/><path id="Shape" d="m8 26h-1c-1.65685425 0-3 1.3431458-3 3 0 .5522847.44771525 1 1 1s1-.4477153 1-1 .44771525-1 1-1h1c.55228475 0 1-.4477153 1-1s-.44771525-1-1-1z"/><path id="Shape" d="m14 28c.5522847 0 1-.4477153 1-1s-.4477153-1-1-1h-2c-.5522847 0-1 .4477153-1 1s.4477153 1 1 1z"/><path id="Shape" d="m46 28h1c.5522847 0 1-.4477153 1-1s-.4477153-1-1-1h-1c-1.6568542 0-3 1.3431458-3 3 0 .5522847.4477153 1 1 1s1-.4477153 1-1 .4477153-1 1-1z"/><path id="Shape" d="m53 26h-2c-.5522847 0-1 .4477153-1 1s.4477153 1 1 1h2c.5522847 0 1-.4477153 1-1s-.4477153-1-1-1z"/><path id="Shape" d="m25.97 10.4c-.1373346-.53205934-.6782442-.85362876-1.2112708-.72009737-.5330265.13353139-.8584506.67213077-.7287292 1.20609737l1.745 6.982c.1389478.5630978.5918266.9945223 1.161 1.106.0988037.0195038.1992899.0292175.3.029.4706618.0008025.9137613-.2218606 1.194-.6l1.57-2.097 1.569 2.094c.3469114.4634215.9295247.6858603 1.4970107.5715512s1.0185466-.5449617 1.1589893-1.1065512l1.745-6.981c.1297214-.5339666-.1957027-1.07256598-.7287292-1.20609737-.5330266-.13353139-1.0739362.18803803-1.2112708.72009737l-1.49 5.962-1.34-1.787c-.2935665-.3614094-.7343842-.5712611-1.2-.5712611s-.9064335.2098517-1.2.5712611l-1.34 1.786z"/><path id="Shape" d="m30 35c-1.084 0-2-.687-2-1.5s.916-1.5 2-1.5c.7958421-.0474358 1.5458955.3749092 1.918 1.08.1286686.3373017.4291499.5790668.7861757.6325514s.7151623-.0896157.937024-.3744059c.2218616-.2847901.2730009-.6670521.1338003-1.0001455-.6705251-1.4703387-2.159915-2.3927741-3.775-2.338-2.0671312-.1264835-3.8509663 1.4343722-4 3.5.1490337 2.0656278 1.9328688 3.6264835 4 3.5 1.084 0 2 .687 2 1.5s-.916 1.5-2 1.5c-.7958421.0474358-1.5458955-.3749092-1.918-1.08-.1286686-.3373017-.4291499-.5790668-.7861757-.6325514s-.7151623.0896157-.937024.3744059c-.2218616.2847901-.2730009.6670521-.1338003 1.0001455.6705251 1.4703387 2.159915 2.3927741 3.775 2.338 2.0671312.1264835 3.8509663-1.4343722 4-3.5-.1490337-2.0656278-1.9328688-3.6264835-4-3.5z"/><path id="Shape" d="m6 34.5v6.5c0 .5522847.44771525 1 1 1s1-.4477153 1-1v-3h2c.5522847 0 1-.4477153 1-1s-.4477153-1-1-1h-2v-1.5c0-1.3807119 1.11928813-2.5 2.5-2.5 1.3807119 0 2.5 1.1192881 2.5 2.5v6.5c0 .5522847.4477153 1 1 1s1-.4477153 1-1v-6.5c0-2.4852813-2.0147187-4.4999999-4.5-4.4999999-2.48528135 0-4.49999996 2.0147186-4.5 4.4999999z"/><path id="Shape" d="m49 30h-2c-1.1045695 0-2 .8954305-2 2 0 .5522847.4477153 1 1 1s1-.4477153 1-1h2c1.6568542 0 3 1.3431458 3 3v2c0 1.6568542-1.3431458 3-3 3h-2v-4c0-.5522847-.4477153-1-1-1s-1 .4477153-1 1v4c0 1.1045695.8954305 2 2 2h2c2.7600532-.0033061 4.9966939-2.2399468 5-5v-2c-.0033061-2.7600532-2.2399468-4.9966939-5-5z"/></g></g></g></svg>