<svg height="512" viewBox="0 0 60 46" width="512" xmlns="http://www.w3.org/2000/svg"><g id="Page-1" fill="none" fill-rule="evenodd"><g id="038---wasd-Keyboard" fill-rule="nonzero"><rect id="Rectangle-path" fill="#9d27b0" height="22" rx="5" width="19" x="1" y="23"/><path id="Shape" d="m15 23h-3c2.7614237 0 5 2.2385763 5 5v12c0 2.7614237-2.2385763 5-5 5h3c2.7614237 0 5-2.2385763 5-5v-12c0-2.7614237-2.2385763-5-5-5z" fill="#6a1b9a"/><rect id="Rectangle-path" fill="#ff9801" height="22" rx="5" width="20" x="20" y="23"/><path id="Shape" d="m35 23h-3c2.7614237 0 5 2.2385763 5 5v12c0 2.7614237-2.2385763 5-5 5h3c2.7614237 0 5-2.2385763 5-5v-12c0-2.7614237-2.2385763-5-5-5z" fill="#f57c00"/><rect id="Rectangle-path" fill="#9d27b0" height="22" rx="5" width="20" x="20" y="1"/><path id="Shape" d="m35 1h-3c2.7614237 0 5 2.23857625 5 5v12c0 2.7614237-2.2385763 5-5 5h3c2.7614237 0 5-2.2385763 5-5v-12c0-2.76142375-2.2385763-5-5-5z" fill="#6a1b9a"/><g fill="#f5f5f5"><path id="Shape" d="m24 8c-.5522847 0-1-.44771525-1-1 0-1.65685425 1.3431458-3 3-3h1c.5522847 0 1 .44771525 1 1s-.4477153 1-1 1h-1c-.5522847 0-1 .44771525-1 1 0 .26521649-.1053568.5195704-.2928932.70710678s-.4418903.29289322-.7071068.29289322z"/><path id="Shape" d="m33 6h-2c-.5522847 0-1-.44771525-1-1s.4477153-1 1-1h2c.5522847 0 1 .44771525 1 1s-.4477153 1-1 1z"/><path id="Shape" d="m24 30c-.5522847 0-1-.4477153-1-1 0-1.6568542 1.3431458-3 3-3h1c.5522847 0 1 .4477153 1 1s-.4477153 1-1 1h-1c-.5522847 0-1 .4477153-1 1s-.4477153 1-1 1z"/><path id="Shape" d="m33 28h-2c-.5522847 0-1-.4477153-1-1s.4477153-1 1-1h2c.5522847 0 1 .4477153 1 1s-.4477153 1-1 1z"/><path id="Shape" d="m5 30c-.55228475 0-1-.4477153-1-1 0-1.6568542 1.34314575-3 3-3h1c.55228475 0 1 .4477153 1 1s-.44771525 1-1 1h-1c-.55228475 0-1 .4477153-1 1s-.44771525 1-1 1z"/><path id="Shape" d="m14 28h-2c-.5522847 0-1-.4477153-1-1s.4477153-1 1-1h2c.5522847 0 1 .4477153 1 1s-.4477153 1-1 1z"/></g><rect id="Rectangle-path" fill="#9d27b0" height="22" rx="5" width="19" x="40" y="23"/><path id="Shape" d="m54 23h-3c2.7614237 0 5 2.2385763 5 5v12c0 2.7614237-2.2385763 5-5 5h3c2.7614237 0 5-2.2385763 5-5v-12c0-1.3260824-.5267842-2.597852-1.4644661-3.5355339s-2.2094515-1.4644661-3.5355339-1.4644661z" fill="#6a1b9a"/><path id="Shape" d="m44 30c-.5522847 0-1-.4477153-1-1 0-1.6568542 1.3431458-3 3-3h1c.5522847 0 1 .4477153 1 1s-.4477153 1-1 1h-1c-.5522847 0-1 .4477153-1 1s-.4477153 1-1 1z" fill="#f5f5f5"/><path id="Shape" d="m53 28h-2c-.5522847 0-1-.4477153-1-1s.4477153-1 1-1h2c.5522847 0 1 .4477153 1 1s-.4477153 1-1 1z" fill="#f5f5f5"/><path id="Shape" d="m54 22h-9c-2.0124967.0016941-3.8901084 1.0122248-5 2.691-.4458533-.6706444-1.0210921-1.2455433-1.692-1.691 1.6791562-1.1096611 2.6900839-2.9873128 2.692-5v-12c-.0038574-3.3121094-2.6878906-5.99614262-6-6h-10c-3.3121094.00385738-5.9961426 2.6878906-6 6v12c.001472 2.0123062 1.0116057 3.889878 2.69 5-.6699639.4447029-1.2445041 1.0185631-1.69 1.688-1.1105827-1.6776325-2.9880746-2.6869722-5-2.688h-9c-3.3121094.0038574-5.99614262 2.6878906-6 6v12c.00330738 3.3123376 2.68766243 5.9966926 6 6h9c2.0123062-.001472 3.889878-1.0116057 5-2.69 1.110122 1.6783943 2.9876938 2.688528 5 2.69h10c2.0123062-.001472 3.889878-1.0116057 5-2.69 1.110122 1.6783943 2.9876938 2.688528 5 2.69h9c3.3121094-.0038574 5.9961426-2.6878906 6-6v-12c-.0038574-3.3121094-2.6878906-5.9961426-6-6zm-33-4v-12c0-2.209139 1.790861-4 4-4h10c2.209139 0 4 1.790861 4 4v12c0 2.209139-1.790861 4-4 4h-10c-2.209139 0-4-1.790861-4-4zm-6 26h-9c-2.209139 0-4-1.790861-4-4v-12c0-2.209139 1.790861-4 4-4h9c2.209139 0 4 1.790861 4 4v12c0 2.209139-1.790861 4-4 4zm20 0h-10c-2.209139 0-4-1.790861-4-4v-12c0-2.209139 1.790861-4 4-4h10c2.209139 0 4 1.790861 4 4v12c0 2.209139-1.790861 4-4 4zm23-4c0 2.209139-1.790861 4-4 4h-9c-2.209139 0-4-1.790861-4-4v-12c0-2.209139 1.790861-4 4-4h9c2.209139 0 4 1.790861 4 4z" fill="#000"/><path id="Shape" d="m35.241 9.667c-.5356925-.13349452-1.0782184.19237908-1.212.728l-1.49 5.961-1.339-1.786c-.2933604-.3617446-.7342539-.5718479-1.2-.5718479s-.9066396.2101033-1.2.5718479l-1.34 1.785-1.492-5.955c-.0760815-.3577465-.3413995-.64541836-.6918378-.75012717-.3504384-.10470881-.7300846-.0097483-.9899577.24761705-.2598731.25736532-.3585104.63607292-.2572045.98751012l1.745 6.982c.1385698.5629456.5910927.9944029 1.16 1.106.0987819.0197629.1992608.0298108.3.03.4704235.0009662.9132891-.2217659 1.193-.6l1.573-2.103 1.568 2.1c.3470502.4628026.9292947.6847984 1.4963684.5705293.5670738-.1142691 1.0179031-.5444361 1.1586316-1.1055293l1.745-6.981c.0656462-.2578237.0258461-.5311785-.1105935-.7595789-.1364397-.22840034-.3582701-.39301557-.6164065-.4574211z" fill="#000"/><path id="Shape" d="m30 35c-1.084 0-2-.687-2-1.5s.916-1.5 2-1.5c.7958421-.0474358 1.5458955.3749092 1.918 1.08.12618.3405681.4270922.585949.7860844.641018s.7196198-.0888325.9420813-.3759194.2717791-.6722202.1288343-1.0060986c-.6702228-1.4707298-2.1596785-2.3936005-3.775-2.339-2.0669419-.1259291-3.8504419 1.4346333-4 3.5.1490337 2.0656278 1.9328688 3.6264835 4 3.5 1.084 0 2 .687 2 1.5s-.917 1.5-2 1.5c-.7956783.0478809-1.5458027-.374113-1.918-1.079-.1323669-.3318997-.4317454-.5679708-.7853624-.6192876-.3536171-.0513168-.7077499.089917-.929.3705-.2212502.280583-.2760045.6578879-.1436376.9897876.6706659 1.4706834 2.1605567 2.3931846 3.776 2.338 2.0671312.1264835 3.8509663-1.4343722 4-3.5-.1495581-2.0653667-1.9330581-3.6259291-4-3.5z" fill="#000"/><path id="Shape" d="m10.5 30c-2.48528137 0-4.5 2.0147186-4.5 4.5v6.5c0 .5522847.44771525 1 1 1s1-.4477153 1-1v-3h2c.5522847 0 1-.4477153 1-1s-.4477153-1-1-1h-2v-1.5c0-1.3807119 1.11928813-2.5 2.5-2.5 1.3807119 0 2.5 1.1192881 2.5 2.5v6.5c0 .5522847.4477153 1 1 1s1-.4477153 1-1v-6.5c-.0027556-2.4841391-2.0158609-4.4972444-4.5-4.5z" fill="#000"/><path id="Shape" d="m49 30h-2c-1.1045695 0-2 .8954305-2 2 0 .5522847.4477153 1 1 1s1-.4477153 1-1h2c1.6568542 0 3 1.3431458 3 3v2c0 1.6568542-1.3431458 3-3 3h-2v-4c0-.5522847-.4477153-1-1-1s-1 .4477153-1 1v4c0 1.1045695.8954305 2 2 2h2c2.7600532-.0033061 4.9966939-2.2399468 5-5v-2c-.0033061-2.7600532-2.2399468-4.9966939-5-5z" fill="#000"/></g></g></svg>